<svg width="1498" height="136" viewBox="0 0 1498 136" fill="none" xmlns="http://www.w3.org/2000/svg">
<mask id="path-1-outside-1_1500_20" maskUnits="userSpaceOnUse" x="0" y="0" width="1498" height="136" fill="black">
<rect fill="white" width="1498" height="136"/>
<path d="M176.16 106.528C167.2 111.52 158.112 113.696 149.408 113.696C130.976 113.696 113.44 104.224 97.568 90.656V5.92H78.88V71.968L78.112 70.944L77.984 71.072L23.328 5.92H4V79.52C4 89.12 10.144 95.52 19.232 95.52H22.688V29.088L66.976 82.336C66.976 82.464 66.976 82.464 67.104 82.464L71.84 88.352C72.608 89.248 73.504 90.144 74.528 90.912C96.672 114.848 121.376 131.616 148.64 131.616C154.4 131.616 160.16 130.848 166.176 129.312C175.776 126.752 180.128 116.896 176.288 106.656L176.16 106.528Z"/>
<path d="M135.688 25.632V5.92H117V10.144C117 19.872 123.144 25.632 132.232 25.632H135.688ZM135.688 95.52V33.184H117V79.52C117 89.12 123.144 95.52 132.232 95.52H135.688Z"/>
<path d="M327.285 106.528C318.325 111.52 309.237 113.696 300.533 113.696C282.101 113.696 264.565 104.224 248.693 90.656V5.92H230.005V71.968L229.237 70.944L229.109 71.072L174.453 5.92H155.125V79.52C155.125 89.12 161.269 95.52 170.357 95.52H173.813V29.088L218.101 82.336C218.101 82.464 218.101 82.464 218.229 82.464L222.965 88.352C223.733 89.248 224.629 90.144 225.653 90.912C247.797 114.848 272.501 131.616 299.765 131.616C305.525 131.616 311.285 130.848 317.301 129.312C326.901 126.752 331.253 116.896 327.413 106.656L327.285 106.528Z"/>
<path d="M275.549 97.056C279.005 97.952 282.589 98.464 286.173 98.464C303.453 98.464 320.477 87.84 320.861 65.952V5.92H302.173V60.192C302.173 73.76 293.853 79.264 284.381 79.264C278.493 79.264 272.093 77.088 267.101 73.12L266.333 75.808C263.517 85.536 267.613 94.88 275.549 97.056Z"/>
<path d="M356.533 95.52V43.808C356.533 29.6 368.821 22.432 380.981 22.432C393.141 22.432 405.301 29.6 405.301 43.808V78.88C405.301 88.864 411.701 95.52 421.173 95.52H423.989V43.808C423.989 17.312 402.485 4 380.981 4C359.477 4 337.845 17.312 337.845 43.808V78.88C337.845 88.864 344.245 95.52 353.717 95.52H356.533ZM365.877 61.216C365.877 67.744 370.229 72.224 376.885 72.224H396.853V67.232C396.853 60.576 392.501 56.224 385.973 56.224H365.877V61.216Z"/>
<path d="M547.502 95.52V79.52H491.438V5.92H472.75V79.52C472.75 89.12 478.894 95.52 487.982 95.52H547.502Z"/>
<path d="M581.063 95.52V5.92H562.375V79.52C562.375 89.12 568.519 95.52 577.607 95.52H581.063Z"/>
<path d="M619.188 95.52V63.392H667.7V47.392H619.188V21.92H676.148V5.92H600.5V79.904C600.5 89.248 606.516 95.52 615.348 95.52H619.188Z"/>
<path d="M767.419 95.52V79.52H709.563V58.656H758.075V42.656H709.563V21.792H766.523V5.92H690.875V79.392C690.875 89.12 697.019 95.52 706.107 95.52H767.419Z"/>
<path d="M830.033 95.52V43.808C830.033 29.6 842.321 22.432 854.481 22.432C866.641 22.432 878.801 29.6 878.801 43.808V78.88C878.801 88.864 885.201 95.52 894.673 95.52H897.489V43.808C897.489 17.312 875.985 4 854.481 4C832.977 4 811.345 17.312 811.345 43.808V78.88C811.345 88.864 817.745 95.52 827.217 95.52H830.033ZM839.377 61.216C839.377 67.744 843.729 72.224 850.385 72.224H870.353V67.232C870.353 60.576 866.001 56.224 859.473 56.224H839.377V61.216Z"/>
<path d="M957.061 5.92C928.901 6.816 913.669 28.704 913.669 50.72C913.669 72.736 928.901 94.624 957.061 95.52H997.893V79.648H957.189C941.189 79.648 933.125 65.056 933.125 50.72C933.125 36.256 941.317 21.792 957.701 21.792H997.893V5.92H957.061Z"/>
<path d="M1010.59 7.84C1010.59 16.16 1015.96 21.792 1023.9 21.792H1103.39V5.92H1010.59V7.84ZM1046.42 79.904C1046.42 89.248 1052.31 95.52 1061.27 95.52H1065.11V31.392H1046.42V79.904Z"/>
<path d="M1135.81 25.632V5.92H1117.12V10.144C1117.12 19.872 1123.27 25.632 1132.36 25.632H1135.81ZM1135.81 95.52V33.184H1117.12V79.52C1117.12 89.12 1123.27 95.52 1132.36 95.52H1135.81Z"/>
<path d="M1210.29 96.928L1251.51 5.92H1231.79L1200.31 74.784L1168.95 5.92H1149.23L1185.07 84.768C1188.91 93.216 1197.36 98.208 1206.19 97.312L1210.29 96.928Z"/>
<path d="M1284.69 25.632V5.92H1266V10.144C1266 19.872 1272.14 25.632 1281.23 25.632H1284.69ZM1284.69 95.52V33.184H1266V79.52C1266 89.12 1272.14 95.52 1281.23 95.52H1284.69Z"/>
<path d="M1297.08 7.84C1297.08 16.16 1302.46 21.792 1310.4 21.792H1389.89V5.92H1297.08V7.84ZM1332.92 79.904C1332.92 89.248 1338.81 95.52 1347.77 95.52H1351.61V31.392H1332.92V79.904Z"/>
<path d="M1434.47 79.392C1434.47 89.12 1440.62 95.52 1449.7 95.52H1453.16V59.424L1490.03 5.92H1468.39L1434.47 57.76V79.392ZM1420.78 39.456C1423.08 42.784 1425.77 44.448 1428.46 44.448C1431.14 44.448 1433.83 42.784 1436.14 39.456L1438.57 35.872L1419.24 5.92H1397.61L1420.78 39.456Z"/>
</mask>
<path d="M176.16 106.528C167.2 111.52 158.112 113.696 149.408 113.696C130.976 113.696 113.44 104.224 97.568 90.656V5.92H78.88V71.968L78.112 70.944L77.984 71.072L23.328 5.92H4V79.52C4 89.12 10.144 95.52 19.232 95.52H22.688V29.088L66.976 82.336C66.976 82.464 66.976 82.464 67.104 82.464L71.84 88.352C72.608 89.248 73.504 90.144 74.528 90.912C96.672 114.848 121.376 131.616 148.64 131.616C154.4 131.616 160.16 130.848 166.176 129.312C175.776 126.752 180.128 116.896 176.288 106.656L176.16 106.528Z" fill="#49BF4D"/>
<path d="M135.688 25.632V5.92H117V10.144C117 19.872 123.144 25.632 132.232 25.632H135.688ZM135.688 95.52V33.184H117V79.52C117 89.12 123.144 95.52 132.232 95.52H135.688Z" fill="#49BF4D"/>
<path d="M327.285 106.528C318.325 111.52 309.237 113.696 300.533 113.696C282.101 113.696 264.565 104.224 248.693 90.656V5.92H230.005V71.968L229.237 70.944L229.109 71.072L174.453 5.92H155.125V79.52C155.125 89.12 161.269 95.52 170.357 95.52H173.813V29.088L218.101 82.336C218.101 82.464 218.101 82.464 218.229 82.464L222.965 88.352C223.733 89.248 224.629 90.144 225.653 90.912C247.797 114.848 272.501 131.616 299.765 131.616C305.525 131.616 311.285 130.848 317.301 129.312C326.901 126.752 331.253 116.896 327.413 106.656L327.285 106.528Z" fill="#49BF4D"/>
<path d="M275.549 97.056C279.005 97.952 282.589 98.464 286.173 98.464C303.453 98.464 320.477 87.84 320.861 65.952V5.92H302.173V60.192C302.173 73.76 293.853 79.264 284.381 79.264C278.493 79.264 272.093 77.088 267.101 73.12L266.333 75.808C263.517 85.536 267.613 94.88 275.549 97.056Z" fill="#49BF4D"/>
<path d="M356.533 95.52V43.808C356.533 29.6 368.821 22.432 380.981 22.432C393.141 22.432 405.301 29.6 405.301 43.808V78.88C405.301 88.864 411.701 95.52 421.173 95.52H423.989V43.808C423.989 17.312 402.485 4 380.981 4C359.477 4 337.845 17.312 337.845 43.808V78.88C337.845 88.864 344.245 95.52 353.717 95.52H356.533ZM365.877 61.216C365.877 67.744 370.229 72.224 376.885 72.224H396.853V67.232C396.853 60.576 392.501 56.224 385.973 56.224H365.877V61.216Z" fill="#49BF4D"/>
<path d="M547.502 95.52V79.52H491.438V5.92H472.75V79.52C472.75 89.12 478.894 95.52 487.982 95.52H547.502Z" fill="#49BF4D"/>
<path d="M581.063 95.52V5.92H562.375V79.52C562.375 89.12 568.519 95.52 577.607 95.52H581.063Z" fill="#49BF4D"/>
<path d="M619.188 95.52V63.392H667.7V47.392H619.188V21.92H676.148V5.92H600.5V79.904C600.5 89.248 606.516 95.52 615.348 95.52H619.188Z" fill="#49BF4D"/>
<path d="M767.419 95.52V79.52H709.563V58.656H758.075V42.656H709.563V21.792H766.523V5.92H690.875V79.392C690.875 89.12 697.019 95.52 706.107 95.52H767.419Z" fill="#49BF4D"/>
<path d="M830.033 95.52V43.808C830.033 29.6 842.321 22.432 854.481 22.432C866.641 22.432 878.801 29.6 878.801 43.808V78.88C878.801 88.864 885.201 95.52 894.673 95.52H897.489V43.808C897.489 17.312 875.985 4 854.481 4C832.977 4 811.345 17.312 811.345 43.808V78.88C811.345 88.864 817.745 95.52 827.217 95.52H830.033ZM839.377 61.216C839.377 67.744 843.729 72.224 850.385 72.224H870.353V67.232C870.353 60.576 866.001 56.224 859.473 56.224H839.377V61.216Z" fill="#49BF4D"/>
<path d="M957.061 5.92C928.901 6.816 913.669 28.704 913.669 50.72C913.669 72.736 928.901 94.624 957.061 95.52H997.893V79.648H957.189C941.189 79.648 933.125 65.056 933.125 50.72C933.125 36.256 941.317 21.792 957.701 21.792H997.893V5.92H957.061Z" fill="#49BF4D"/>
<path d="M1010.59 7.84C1010.59 16.16 1015.96 21.792 1023.9 21.792H1103.39V5.92H1010.59V7.84ZM1046.42 79.904C1046.42 89.248 1052.31 95.52 1061.27 95.52H1065.11V31.392H1046.42V79.904Z" fill="#49BF4D"/>
<path d="M1135.81 25.632V5.92H1117.12V10.144C1117.12 19.872 1123.27 25.632 1132.36 25.632H1135.81ZM1135.81 95.52V33.184H1117.12V79.52C1117.12 89.12 1123.27 95.52 1132.36 95.52H1135.81Z" fill="#49BF4D"/>
<path d="M1210.29 96.928L1251.51 5.92H1231.79L1200.31 74.784L1168.95 5.92H1149.23L1185.07 84.768C1188.91 93.216 1197.36 98.208 1206.19 97.312L1210.29 96.928Z" fill="#49BF4D"/>
<path d="M1284.69 25.632V5.92H1266V10.144C1266 19.872 1272.14 25.632 1281.23 25.632H1284.69ZM1284.69 95.52V33.184H1266V79.52C1266 89.12 1272.14 95.52 1281.23 95.52H1284.69Z" fill="#49BF4D"/>
<path d="M1297.08 7.84C1297.08 16.16 1302.46 21.792 1310.4 21.792H1389.89V5.92H1297.08V7.84ZM1332.92 79.904C1332.92 89.248 1338.81 95.52 1347.77 95.52H1351.61V31.392H1332.92V79.904Z" fill="#49BF4D"/>
<path d="M1434.47 79.392C1434.47 89.12 1440.62 95.52 1449.7 95.52H1453.16V59.424L1490.03 5.92H1468.39L1434.47 57.76V79.392ZM1420.78 39.456C1423.08 42.784 1425.77 44.448 1428.46 44.448C1431.14 44.448 1433.83 42.784 1436.14 39.456L1438.57 35.872L1419.24 5.92H1397.61L1420.78 39.456Z" fill="#49BF4D"/>
<path d="M176.16 106.528C167.2 111.52 158.112 113.696 149.408 113.696C130.976 113.696 113.44 104.224 97.568 90.656V5.92H78.88V71.968L78.112 70.944L77.984 71.072L23.328 5.92H4V79.52C4 89.12 10.144 95.52 19.232 95.52H22.688V29.088L66.976 82.336C66.976 82.464 66.976 82.464 67.104 82.464L71.84 88.352C72.608 89.248 73.504 90.144 74.528 90.912C96.672 114.848 121.376 131.616 148.64 131.616C154.4 131.616 160.16 130.848 166.176 129.312C175.776 126.752 180.128 116.896 176.288 106.656L176.16 106.528Z" stroke="#00AB07" stroke-width="8" mask="url(#path-1-outside-1_1500_20)"/>
<path d="M135.688 25.632V5.92H117V10.144C117 19.872 123.144 25.632 132.232 25.632H135.688ZM135.688 95.52V33.184H117V79.52C117 89.12 123.144 95.52 132.232 95.52H135.688Z" stroke="#00AB07" stroke-width="8" mask="url(#path-1-outside-1_1500_20)"/>
<path d="M327.285 106.528C318.325 111.52 309.237 113.696 300.533 113.696C282.101 113.696 264.565 104.224 248.693 90.656V5.92H230.005V71.968L229.237 70.944L229.109 71.072L174.453 5.92H155.125V79.52C155.125 89.12 161.269 95.52 170.357 95.52H173.813V29.088L218.101 82.336C218.101 82.464 218.101 82.464 218.229 82.464L222.965 88.352C223.733 89.248 224.629 90.144 225.653 90.912C247.797 114.848 272.501 131.616 299.765 131.616C305.525 131.616 311.285 130.848 317.301 129.312C326.901 126.752 331.253 116.896 327.413 106.656L327.285 106.528Z" stroke="#00AB07" stroke-width="8" mask="url(#path-1-outside-1_1500_20)"/>
<path d="M275.549 97.056C279.005 97.952 282.589 98.464 286.173 98.464C303.453 98.464 320.477 87.84 320.861 65.952V5.92H302.173V60.192C302.173 73.76 293.853 79.264 284.381 79.264C278.493 79.264 272.093 77.088 267.101 73.12L266.333 75.808C263.517 85.536 267.613 94.88 275.549 97.056Z" stroke="#00AB07" stroke-width="8" mask="url(#path-1-outside-1_1500_20)"/>
<path d="M356.533 95.52V43.808C356.533 29.6 368.821 22.432 380.981 22.432C393.141 22.432 405.301 29.6 405.301 43.808V78.88C405.301 88.864 411.701 95.52 421.173 95.52H423.989V43.808C423.989 17.312 402.485 4 380.981 4C359.477 4 337.845 17.312 337.845 43.808V78.88C337.845 88.864 344.245 95.52 353.717 95.52H356.533ZM365.877 61.216C365.877 67.744 370.229 72.224 376.885 72.224H396.853V67.232C396.853 60.576 392.501 56.224 385.973 56.224H365.877V61.216Z" stroke="#00AB07" stroke-width="8" mask="url(#path-1-outside-1_1500_20)"/>
<path d="M547.502 95.52V79.52H491.438V5.92H472.75V79.52C472.75 89.12 478.894 95.52 487.982 95.52H547.502Z" stroke="#00AB07" stroke-width="8" mask="url(#path-1-outside-1_1500_20)"/>
<path d="M581.063 95.52V5.92H562.375V79.52C562.375 89.12 568.519 95.52 577.607 95.52H581.063Z" stroke="#00AB07" stroke-width="8" mask="url(#path-1-outside-1_1500_20)"/>
<path d="M619.188 95.52V63.392H667.7V47.392H619.188V21.92H676.148V5.92H600.5V79.904C600.5 89.248 606.516 95.52 615.348 95.52H619.188Z" stroke="#00AB07" stroke-width="8" mask="url(#path-1-outside-1_1500_20)"/>
<path d="M767.419 95.52V79.52H709.563V58.656H758.075V42.656H709.563V21.792H766.523V5.92H690.875V79.392C690.875 89.12 697.019 95.52 706.107 95.52H767.419Z" stroke="#00AB07" stroke-width="8" mask="url(#path-1-outside-1_1500_20)"/>
<path d="M830.033 95.52V43.808C830.033 29.6 842.321 22.432 854.481 22.432C866.641 22.432 878.801 29.6 878.801 43.808V78.88C878.801 88.864 885.201 95.52 894.673 95.52H897.489V43.808C897.489 17.312 875.985 4 854.481 4C832.977 4 811.345 17.312 811.345 43.808V78.88C811.345 88.864 817.745 95.52 827.217 95.52H830.033ZM839.377 61.216C839.377 67.744 843.729 72.224 850.385 72.224H870.353V67.232C870.353 60.576 866.001 56.224 859.473 56.224H839.377V61.216Z" stroke="#00AB07" stroke-width="8" mask="url(#path-1-outside-1_1500_20)"/>
<path d="M957.061 5.92C928.901 6.816 913.669 28.704 913.669 50.72C913.669 72.736 928.901 94.624 957.061 95.52H997.893V79.648H957.189C941.189 79.648 933.125 65.056 933.125 50.72C933.125 36.256 941.317 21.792 957.701 21.792H997.893V5.92H957.061Z" stroke="#00AB07" stroke-width="8" mask="url(#path-1-outside-1_1500_20)"/>
<path d="M1010.59 7.84C1010.59 16.16 1015.96 21.792 1023.9 21.792H1103.39V5.92H1010.59V7.84ZM1046.42 79.904C1046.42 89.248 1052.31 95.52 1061.27 95.52H1065.11V31.392H1046.42V79.904Z" stroke="#00AB07" stroke-width="8" mask="url(#path-1-outside-1_1500_20)"/>
<path d="M1135.81 25.632V5.92H1117.12V10.144C1117.12 19.872 1123.27 25.632 1132.36 25.632H1135.81ZM1135.81 95.52V33.184H1117.12V79.52C1117.12 89.12 1123.27 95.52 1132.36 95.52H1135.81Z" stroke="#00AB07" stroke-width="8" mask="url(#path-1-outside-1_1500_20)"/>
<path d="M1210.29 96.928L1251.51 5.92H1231.79L1200.31 74.784L1168.95 5.92H1149.23L1185.07 84.768C1188.91 93.216 1197.36 98.208 1206.19 97.312L1210.29 96.928Z" stroke="#00AB07" stroke-width="8" mask="url(#path-1-outside-1_1500_20)"/>
<path d="M1284.69 25.632V5.92H1266V10.144C1266 19.872 1272.14 25.632 1281.23 25.632H1284.69ZM1284.69 95.52V33.184H1266V79.52C1266 89.12 1272.14 95.52 1281.23 95.52H1284.69Z" stroke="#00AB07" stroke-width="8" mask="url(#path-1-outside-1_1500_20)"/>
<path d="M1297.08 7.84C1297.08 16.16 1302.46 21.792 1310.4 21.792H1389.89V5.92H1297.08V7.84ZM1332.92 79.904C1332.92 89.248 1338.81 95.52 1347.77 95.52H1351.61V31.392H1332.92V79.904Z" stroke="#00AB07" stroke-width="8" mask="url(#path-1-outside-1_1500_20)"/>
<path d="M1434.47 79.392C1434.47 89.12 1440.62 95.52 1449.7 95.52H1453.16V59.424L1490.03 5.92H1468.39L1434.47 57.76V79.392ZM1420.78 39.456C1423.08 42.784 1425.77 44.448 1428.46 44.448C1431.14 44.448 1433.83 42.784 1436.14 39.456L1438.57 35.872L1419.24 5.92H1397.61L1420.78 39.456Z" stroke="#00AB07" stroke-width="8" mask="url(#path-1-outside-1_1500_20)"/>
</svg>
